<mxfile host="app.diagrams.net" modified="2022-03-11T20:15:48.361Z" agent="5.0 (Windows)" etag="j_NlXSAKqxFV5Pkf1SZ6" compressed="false" version="17.1.2" type="device">
  <diagram id="nGzcSXuAfVZZNBNLkZPc" name="Page-1">
    <mxGraphModel dx="1673" dy="929" grid="1" gridSize="10" guides="1" tooltips="1" connect="1" arrows="1" fold="1" page="0" pageScale="1" pageWidth="850" pageHeight="1100" math="0" shadow="0">
      <root>
        <mxCell id="0" />
        <mxCell id="1" parent="0" />
        <mxCell id="IA97lqPhP8d_G3Qx_xhv-168" value="" style="rounded=0;whiteSpace=wrap;html=1;fillColor=#FFFFFF;" vertex="1" parent="1">
          <mxGeometry x="160" y="140" width="920" height="700" as="geometry" />
        </mxCell>
        <mxCell id="IA97lqPhP8d_G3Qx_xhv-232" value="&lt;font style=&quot;font-size: 10px&quot;&gt;k = 1&lt;/font&gt;" style="rounded=0;whiteSpace=wrap;html=1;fontSize=12;fillColor=#FFFFFF;align=left;verticalAlign=bottom;fontStyle=0;dashed=1;spacingLeft=2;" vertex="1" parent="1">
          <mxGeometry x="850" y="690" width="120" height="60" as="geometry" />
        </mxCell>
        <mxCell id="IA97lqPhP8d_G3Qx_xhv-114" value="&lt;div&gt;PLL&lt;/div&gt;" style="rounded=0;whiteSpace=wrap;html=1;fillColor=#FFFFFF;align=right;verticalAlign=top;spacing=0;spacingTop=0;spacingLeft=0;spacingRight=6;" vertex="1" parent="1">
          <mxGeometry x="470" y="395" width="90" height="125" as="geometry" />
        </mxCell>
        <mxCell id="IA97lqPhP8d_G3Qx_xhv-2" value="&lt;div&gt;LSI RC&lt;/div&gt;&lt;div&gt;40kHz&lt;br&gt;&lt;/div&gt;" style="rounded=0;whiteSpace=wrap;html=1;" vertex="1" parent="1">
          <mxGeometry x="200" y="160" width="80" height="40" as="geometry" />
        </mxCell>
        <mxCell id="IA97lqPhP8d_G3Qx_xhv-3" value="&lt;div&gt;LSE OSC&lt;/div&gt;&lt;div&gt;32.768kHz&lt;br&gt;&lt;/div&gt;" style="rounded=0;whiteSpace=wrap;html=1;" vertex="1" parent="1">
          <mxGeometry x="200" y="220" width="80" height="40" as="geometry" />
        </mxCell>
        <mxCell id="IA97lqPhP8d_G3Qx_xhv-5" value="" style="endArrow=blockThin;html=1;rounded=0;endFill=1;startArrow=none;" edge="1" parent="1" source="IA97lqPhP8d_G3Qx_xhv-32">
          <mxGeometry width="50" height="50" relative="1" as="geometry">
            <mxPoint x="280" y="179.67" as="sourcePoint" />
            <mxPoint x="1060" y="180" as="targetPoint" />
          </mxGeometry>
        </mxCell>
        <mxCell id="IA97lqPhP8d_G3Qx_xhv-6" value="&lt;div&gt;to IWDG&lt;br&gt;&lt;/div&gt;" style="text;html=1;align=right;verticalAlign=middle;resizable=0;points=[];autosize=1;strokeColor=none;fillColor=none;spacingRight=6;" vertex="1" parent="1">
          <mxGeometry x="990" y="160" width="70" height="20" as="geometry" />
        </mxCell>
        <mxCell id="IA97lqPhP8d_G3Qx_xhv-7" value="" style="endArrow=blockThin;html=1;rounded=0;endFill=1;" edge="1" parent="1">
          <mxGeometry width="50" height="50" relative="1" as="geometry">
            <mxPoint x="165" y="229.76999999999992" as="sourcePoint" />
            <mxPoint x="200" y="230" as="targetPoint" />
          </mxGeometry>
        </mxCell>
        <mxCell id="IA97lqPhP8d_G3Qx_xhv-8" value="" style="endArrow=blockThin;html=1;rounded=0;endFill=1;" edge="1" parent="1">
          <mxGeometry width="50" height="50" relative="1" as="geometry">
            <mxPoint x="200" y="250" as="sourcePoint" />
            <mxPoint x="165" y="249.76999999999998" as="targetPoint" />
          </mxGeometry>
        </mxCell>
        <mxCell id="IA97lqPhP8d_G3Qx_xhv-12" value="" style="whiteSpace=wrap;html=1;aspect=fixed;" vertex="1" parent="1">
          <mxGeometry x="155" y="225" width="10" height="10" as="geometry" />
        </mxCell>
        <mxCell id="IA97lqPhP8d_G3Qx_xhv-13" value="" style="whiteSpace=wrap;html=1;aspect=fixed;" vertex="1" parent="1">
          <mxGeometry x="155" y="245" width="10" height="10" as="geometry" />
        </mxCell>
        <mxCell id="IA97lqPhP8d_G3Qx_xhv-21" value="&lt;div&gt;OSC32_IN&lt;/div&gt;" style="text;html=1;align=right;verticalAlign=middle;resizable=0;points=[];autosize=1;strokeColor=none;fillColor=none;" vertex="1" parent="1">
          <mxGeometry x="80" y="220" width="70" height="20" as="geometry" />
        </mxCell>
        <mxCell id="IA97lqPhP8d_G3Qx_xhv-22" value="&lt;div&gt;OSC32_OUT&lt;/div&gt;" style="text;html=1;align=right;verticalAlign=middle;resizable=0;points=[];autosize=1;strokeColor=none;fillColor=none;" vertex="1" parent="1">
          <mxGeometry x="60" y="240" width="90" height="20" as="geometry" />
        </mxCell>
        <mxCell id="IA97lqPhP8d_G3Qx_xhv-27" value="" style="endArrow=blockThin;html=1;rounded=0;endFill=1;entryX=0.5;entryY=1;entryDx=0;entryDy=0;" edge="1" parent="1" target="IA97lqPhP8d_G3Qx_xhv-30">
          <mxGeometry width="50" height="50" relative="1" as="geometry">
            <mxPoint x="280" y="239.99999999999991" as="sourcePoint" />
            <mxPoint x="360" y="240" as="targetPoint" />
          </mxGeometry>
        </mxCell>
        <mxCell id="IA97lqPhP8d_G3Qx_xhv-28" value="" style="endArrow=blockThin;html=1;rounded=0;endFill=1;startArrow=none;" edge="1" parent="1" source="IA97lqPhP8d_G3Qx_xhv-32">
          <mxGeometry width="50" height="50" relative="1" as="geometry">
            <mxPoint x="320" y="180" as="sourcePoint" />
            <mxPoint x="400" y="220" as="targetPoint" />
            <Array as="points">
              <mxPoint x="320" y="220" />
            </Array>
          </mxGeometry>
        </mxCell>
        <mxCell id="IA97lqPhP8d_G3Qx_xhv-30" value="" style="shape=trapezoid;perimeter=trapezoidPerimeter;whiteSpace=wrap;html=1;fixedSize=1;size=10;rotation=90;" vertex="1" parent="1">
          <mxGeometry x="380" y="225" width="70" height="30" as="geometry" />
        </mxCell>
        <mxCell id="IA97lqPhP8d_G3Qx_xhv-31" value="" style="endArrow=blockThin;html=1;rounded=0;endFill=1;exitX=0.5;exitY=0;exitDx=0;exitDy=0;" edge="1" parent="1" source="IA97lqPhP8d_G3Qx_xhv-30">
          <mxGeometry width="50" height="50" relative="1" as="geometry">
            <mxPoint x="390" y="239.9999999999999" as="sourcePoint" />
            <mxPoint x="1060" y="240" as="targetPoint" />
          </mxGeometry>
        </mxCell>
        <mxCell id="IA97lqPhP8d_G3Qx_xhv-33" value="" style="endArrow=none;html=1;rounded=0;endFill=1;" edge="1" parent="1" target="IA97lqPhP8d_G3Qx_xhv-32">
          <mxGeometry width="50" height="50" relative="1" as="geometry">
            <mxPoint x="280" y="179.66999999999996" as="sourcePoint" />
            <mxPoint x="760" y="180" as="targetPoint" />
          </mxGeometry>
        </mxCell>
        <mxCell id="IA97lqPhP8d_G3Qx_xhv-32" value="" style="ellipse;whiteSpace=wrap;html=1;aspect=fixed;fillColor=#000000;" vertex="1" parent="1">
          <mxGeometry x="317.5" y="177.5" width="5" height="5" as="geometry" />
        </mxCell>
        <mxCell id="IA97lqPhP8d_G3Qx_xhv-34" value="" style="endArrow=none;html=1;rounded=0;endFill=1;" edge="1" parent="1" target="IA97lqPhP8d_G3Qx_xhv-32">
          <mxGeometry width="50" height="50" relative="1" as="geometry">
            <mxPoint x="320" y="180" as="sourcePoint" />
            <mxPoint x="360" y="219.74" as="targetPoint" />
            <Array as="points" />
          </mxGeometry>
        </mxCell>
        <mxCell id="IA97lqPhP8d_G3Qx_xhv-35" value="to RTC" style="text;html=1;align=right;verticalAlign=middle;resizable=0;points=[];autosize=1;strokeColor=none;fillColor=none;spacingRight=6;" vertex="1" parent="1">
          <mxGeometry x="1000" y="220" width="60" height="20" as="geometry" />
        </mxCell>
        <mxCell id="IA97lqPhP8d_G3Qx_xhv-36" value="/ 128" style="rounded=0;whiteSpace=wrap;html=1;fillColor=#FFFFFF;" vertex="1" parent="1">
          <mxGeometry x="340" y="250" width="40" height="20" as="geometry" />
        </mxCell>
        <mxCell id="IA97lqPhP8d_G3Qx_xhv-38" value="&lt;div&gt;HSI RC&lt;/div&gt;&lt;div&gt;8MHz&lt;br&gt;&lt;/div&gt;" style="rounded=0;whiteSpace=wrap;html=1;" vertex="1" parent="1">
          <mxGeometry x="200" y="420" width="80" height="40" as="geometry" />
        </mxCell>
        <mxCell id="IA97lqPhP8d_G3Qx_xhv-39" value="&lt;div&gt;HSE OSC&lt;br&gt;&lt;/div&gt;&lt;div&gt;4-16MHz&lt;/div&gt;" style="rounded=0;whiteSpace=wrap;html=1;" vertex="1" parent="1">
          <mxGeometry x="200" y="360" width="80" height="40" as="geometry" />
        </mxCell>
        <mxCell id="IA97lqPhP8d_G3Qx_xhv-40" value="" style="endArrow=blockThin;html=1;rounded=0;endFill=1;" edge="1" parent="1">
          <mxGeometry width="50" height="50" relative="1" as="geometry">
            <mxPoint x="165" y="369.77" as="sourcePoint" />
            <mxPoint x="200" y="370" as="targetPoint" />
          </mxGeometry>
        </mxCell>
        <mxCell id="IA97lqPhP8d_G3Qx_xhv-41" value="" style="endArrow=blockThin;html=1;rounded=0;endFill=1;" edge="1" parent="1">
          <mxGeometry width="50" height="50" relative="1" as="geometry">
            <mxPoint x="200" y="390" as="sourcePoint" />
            <mxPoint x="165" y="389.77" as="targetPoint" />
          </mxGeometry>
        </mxCell>
        <mxCell id="IA97lqPhP8d_G3Qx_xhv-42" value="" style="whiteSpace=wrap;html=1;aspect=fixed;" vertex="1" parent="1">
          <mxGeometry x="155" y="365" width="10" height="10" as="geometry" />
        </mxCell>
        <mxCell id="IA97lqPhP8d_G3Qx_xhv-43" value="" style="whiteSpace=wrap;html=1;aspect=fixed;" vertex="1" parent="1">
          <mxGeometry x="155" y="385" width="10" height="10" as="geometry" />
        </mxCell>
        <mxCell id="IA97lqPhP8d_G3Qx_xhv-44" value="&lt;div&gt;OSC_IN&lt;/div&gt;" style="text;html=1;align=right;verticalAlign=middle;resizable=0;points=[];autosize=1;strokeColor=none;fillColor=none;" vertex="1" parent="1">
          <mxGeometry x="90" y="360" width="60" height="20" as="geometry" />
        </mxCell>
        <mxCell id="IA97lqPhP8d_G3Qx_xhv-45" value="&lt;div&gt;OSC_OUT&lt;/div&gt;" style="text;html=1;align=right;verticalAlign=middle;resizable=0;points=[];autosize=1;strokeColor=none;fillColor=none;" vertex="1" parent="1">
          <mxGeometry x="80" y="380" width="70" height="20" as="geometry" />
        </mxCell>
        <mxCell id="IA97lqPhP8d_G3Qx_xhv-66" value="" style="endArrow=blockThin;html=1;rounded=0;endFill=1;startArrow=none;" edge="1" parent="1" source="IA97lqPhP8d_G3Qx_xhv-281">
          <mxGeometry width="50" height="50" relative="1" as="geometry">
            <mxPoint x="279.9999999999999" y="379.81" as="sourcePoint" />
            <mxPoint x="640" y="380" as="targetPoint" />
            <Array as="points" />
          </mxGeometry>
        </mxCell>
        <mxCell id="IA97lqPhP8d_G3Qx_xhv-73" value="" style="endArrow=blockThin;html=1;rounded=0;endFill=1;" edge="1" parent="1">
          <mxGeometry width="50" height="50" relative="1" as="geometry">
            <mxPoint x="279.9999999999999" y="439.99999999999994" as="sourcePoint" />
            <mxPoint x="360" y="440" as="targetPoint" />
          </mxGeometry>
        </mxCell>
        <mxCell id="IA97lqPhP8d_G3Qx_xhv-93" value="" style="endArrow=blockThin;html=1;rounded=0;endFill=1;" edge="1" parent="1">
          <mxGeometry width="50" height="50" relative="1" as="geometry">
            <mxPoint x="320" y="380" as="sourcePoint" />
            <mxPoint x="340" y="259.69" as="targetPoint" />
            <Array as="points">
              <mxPoint x="320" y="260" />
            </Array>
          </mxGeometry>
        </mxCell>
        <mxCell id="IA97lqPhP8d_G3Qx_xhv-100" value="" style="endArrow=blockThin;html=1;rounded=0;endFill=1;" edge="1" parent="1">
          <mxGeometry width="50" height="50" relative="1" as="geometry">
            <mxPoint x="380" y="260" as="sourcePoint" />
            <mxPoint x="400" y="260" as="targetPoint" />
          </mxGeometry>
        </mxCell>
        <mxCell id="IA97lqPhP8d_G3Qx_xhv-104" value="" style="endArrow=blockThin;html=1;rounded=0;endFill=1;" edge="1" parent="1">
          <mxGeometry width="50" height="50" relative="1" as="geometry">
            <mxPoint x="389.9999999999999" y="424.87" as="sourcePoint" />
            <mxPoint x="409.9999999999999" y="424.87" as="targetPoint" />
          </mxGeometry>
        </mxCell>
        <mxCell id="IA97lqPhP8d_G3Qx_xhv-106" value="/ M" style="rounded=0;whiteSpace=wrap;html=1;fillColor=#FFFFFF;" vertex="1" parent="1">
          <mxGeometry x="410" y="415" width="40" height="20" as="geometry" />
        </mxCell>
        <mxCell id="IA97lqPhP8d_G3Qx_xhv-107" value="" style="endArrow=blockThin;html=1;rounded=0;endFill=1;" edge="1" parent="1">
          <mxGeometry width="50" height="50" relative="1" as="geometry">
            <mxPoint x="449.9999999999999" y="425" as="sourcePoint" />
            <mxPoint x="470" y="425" as="targetPoint" />
          </mxGeometry>
        </mxCell>
        <mxCell id="IA97lqPhP8d_G3Qx_xhv-108" value="M={1, 2}" style="text;html=1;align=center;verticalAlign=middle;resizable=0;points=[];autosize=1;strokeColor=none;fillColor=none;" vertex="1" parent="1">
          <mxGeometry x="400" y="435" width="60" height="20" as="geometry" />
        </mxCell>
        <mxCell id="IA97lqPhP8d_G3Qx_xhv-110" value="" style="endArrow=blockThin;html=1;rounded=0;endFill=1;" edge="1" parent="1">
          <mxGeometry width="50" height="50" relative="1" as="geometry">
            <mxPoint x="530" y="424.74999999999994" as="sourcePoint" />
            <mxPoint x="640" y="425" as="targetPoint" />
          </mxGeometry>
        </mxCell>
        <mxCell id="IA97lqPhP8d_G3Qx_xhv-112" value="× N" style="rounded=0;whiteSpace=wrap;html=1;fillColor=#FFFFFF;" vertex="1" parent="1">
          <mxGeometry x="490" y="480" width="40" height="20" as="geometry" />
        </mxCell>
        <mxCell id="IA97lqPhP8d_G3Qx_xhv-113" value="VCO" style="whiteSpace=wrap;html=1;aspect=fixed;fillColor=#FFFFFF;" vertex="1" parent="1">
          <mxGeometry x="490" y="415" width="40" height="40" as="geometry" />
        </mxCell>
        <mxCell id="IA97lqPhP8d_G3Qx_xhv-115" value="" style="endArrow=none;html=1;rounded=0;endFill=0;exitX=0;exitY=0.5;exitDx=0;exitDy=0;" edge="1" parent="1" source="IA97lqPhP8d_G3Qx_xhv-112">
          <mxGeometry width="50" height="50" relative="1" as="geometry">
            <mxPoint x="490" y="475" as="sourcePoint" />
            <mxPoint x="490" y="445.29999999999995" as="targetPoint" />
            <Array as="points">
              <mxPoint x="480" y="490" />
              <mxPoint x="480" y="445" />
            </Array>
          </mxGeometry>
        </mxCell>
        <mxCell id="IA97lqPhP8d_G3Qx_xhv-116" value="" style="endArrow=none;html=1;rounded=0;endFill=0;entryX=1;entryY=0.5;entryDx=0;entryDy=0;" edge="1" parent="1" target="IA97lqPhP8d_G3Qx_xhv-112">
          <mxGeometry width="50" height="50" relative="1" as="geometry">
            <mxPoint x="550" y="425" as="sourcePoint" />
            <mxPoint x="530" y="475" as="targetPoint" />
            <Array as="points">
              <mxPoint x="550" y="490" />
            </Array>
          </mxGeometry>
        </mxCell>
        <mxCell id="IA97lqPhP8d_G3Qx_xhv-117" value="N=[2..16]" style="text;html=1;align=center;verticalAlign=middle;resizable=0;points=[];autosize=1;strokeColor=none;fillColor=none;" vertex="1" parent="1">
          <mxGeometry x="480" y="500" width="60" height="20" as="geometry" />
        </mxCell>
        <mxCell id="IA97lqPhP8d_G3Qx_xhv-119" value="" style="endArrow=none;html=1;rounded=0;endFill=0;" edge="1" parent="1">
          <mxGeometry width="50" height="50" relative="1" as="geometry">
            <mxPoint x="470" y="425" as="sourcePoint" />
            <mxPoint x="490" y="425.15000000000003" as="targetPoint" />
          </mxGeometry>
        </mxCell>
        <mxCell id="IA97lqPhP8d_G3Qx_xhv-121" value="PLLCLK" style="text;html=1;align=right;verticalAlign=middle;resizable=0;points=[];autosize=1;strokeColor=none;fillColor=none;spacingRight=6;fontStyle=0" vertex="1" parent="1">
          <mxGeometry x="570" y="405" width="70" height="20" as="geometry" />
        </mxCell>
        <mxCell id="IA97lqPhP8d_G3Qx_xhv-122" value="" style="endArrow=blockThin;html=1;rounded=0;endFill=1;" edge="1" parent="1">
          <mxGeometry width="50" height="50" relative="1" as="geometry">
            <mxPoint x="320" y="380" as="sourcePoint" />
            <mxPoint x="360" y="410" as="targetPoint" />
            <Array as="points">
              <mxPoint x="320" y="410" />
            </Array>
          </mxGeometry>
        </mxCell>
        <mxCell id="IA97lqPhP8d_G3Qx_xhv-123" value="" style="shape=trapezoid;perimeter=trapezoidPerimeter;whiteSpace=wrap;html=1;fixedSize=1;size=10;rotation=90;" vertex="1" parent="1">
          <mxGeometry x="340" y="410" width="70" height="30" as="geometry" />
        </mxCell>
        <mxCell id="IA97lqPhP8d_G3Qx_xhv-124" value="HSE" style="text;html=1;align=right;verticalAlign=middle;resizable=0;points=[];autosize=1;strokeColor=none;fillColor=none;spacingRight=6;fontStyle=0" vertex="1" parent="1">
          <mxGeometry x="590" y="360" width="50" height="20" as="geometry" />
        </mxCell>
        <mxCell id="IA97lqPhP8d_G3Qx_xhv-126" value="" style="endArrow=blockThin;html=1;rounded=0;endFill=1;startArrow=none;" edge="1" parent="1" source="IA97lqPhP8d_G3Qx_xhv-283">
          <mxGeometry width="50" height="50" relative="1" as="geometry">
            <mxPoint x="320" y="440" as="sourcePoint" />
            <mxPoint x="640" y="540" as="targetPoint" />
            <Array as="points">
              <mxPoint x="320" y="540" />
            </Array>
          </mxGeometry>
        </mxCell>
        <mxCell id="IA97lqPhP8d_G3Qx_xhv-127" value="HSI" style="text;html=1;align=right;verticalAlign=middle;resizable=0;points=[];autosize=1;strokeColor=none;fillColor=none;spacingRight=6;fontStyle=0" vertex="1" parent="1">
          <mxGeometry x="600" y="520" width="40" height="20" as="geometry" />
        </mxCell>
        <mxCell id="IA97lqPhP8d_G3Qx_xhv-129" value="CSS" style="rounded=0;whiteSpace=wrap;html=1;fillColor=#FFFFFF;" vertex="1" parent="1">
          <mxGeometry x="635" y="330" width="40" height="20" as="geometry" />
        </mxCell>
        <mxCell id="IA97lqPhP8d_G3Qx_xhv-130" value="" style="endArrow=none;html=1;rounded=0;entryX=0.5;entryY=1;entryDx=0;entryDy=0;exitX=0;exitY=0.5;exitDx=0;exitDy=0;" edge="1" parent="1" target="IA97lqPhP8d_G3Qx_xhv-129">
          <mxGeometry width="50" height="50" relative="1" as="geometry">
            <mxPoint x="655.0050000000001" y="375.005" as="sourcePoint" />
            <mxPoint x="540" y="350" as="targetPoint" />
          </mxGeometry>
        </mxCell>
        <mxCell id="IA97lqPhP8d_G3Qx_xhv-138" value="" style="endArrow=blockThin;html=1;rounded=0;endFill=1;entryX=0;entryY=0.5;entryDx=0;entryDy=0;" edge="1" parent="1" target="IA97lqPhP8d_G3Qx_xhv-139">
          <mxGeometry width="50" height="50" relative="1" as="geometry">
            <mxPoint x="880" y="360" as="sourcePoint" />
            <mxPoint x="980" y="640" as="targetPoint" />
            <Array as="points">
              <mxPoint x="880" y="360" />
            </Array>
          </mxGeometry>
        </mxCell>
        <mxCell id="IA97lqPhP8d_G3Qx_xhv-139" value="/ Q" style="rounded=0;whiteSpace=wrap;html=1;fillColor=#FFFFFF;" vertex="1" parent="1">
          <mxGeometry x="940" y="350" width="40" height="20" as="geometry" />
        </mxCell>
        <mxCell id="IA97lqPhP8d_G3Qx_xhv-140" value="" style="endArrow=blockThin;html=1;rounded=0;endFill=1;exitX=1;exitY=0.5;exitDx=0;exitDy=0;" edge="1" parent="1" source="IA97lqPhP8d_G3Qx_xhv-139">
          <mxGeometry width="50" height="50" relative="1" as="geometry">
            <mxPoint x="1020" y="359.78999999999996" as="sourcePoint" />
            <mxPoint x="1060" y="360" as="targetPoint" />
          </mxGeometry>
        </mxCell>
        <mxCell id="IA97lqPhP8d_G3Qx_xhv-141" value="to USBHD" style="text;html=1;align=right;verticalAlign=middle;resizable=0;points=[];autosize=1;strokeColor=none;fillColor=none;spacingRight=6;" vertex="1" parent="1">
          <mxGeometry x="980" y="340" width="80" height="20" as="geometry" />
        </mxCell>
        <mxCell id="IA97lqPhP8d_G3Qx_xhv-142" value="&lt;div&gt;Q={1, 1.5}&lt;br&gt;&lt;/div&gt;" style="text;html=1;align=center;verticalAlign=middle;resizable=0;points=[];autosize=1;strokeColor=none;fillColor=none;" vertex="1" parent="1">
          <mxGeometry x="925" y="370" width="70" height="20" as="geometry" />
        </mxCell>
        <mxCell id="IA97lqPhP8d_G3Qx_xhv-146" value="PLLCLK" style="text;html=1;align=right;verticalAlign=middle;resizable=0;points=[];autosize=1;strokeColor=none;fillColor=none;spacingRight=6;fontStyle=0" vertex="1" parent="1">
          <mxGeometry x="865" y="340" width="70" height="20" as="geometry" />
        </mxCell>
        <mxCell id="IA97lqPhP8d_G3Qx_xhv-151" value="&lt;div&gt;SYSCLK&lt;/div&gt;" style="text;html=1;align=center;verticalAlign=middle;resizable=0;points=[];autosize=1;strokeColor=none;fillColor=none;spacingRight=0;fontStyle=1" vertex="1" parent="1">
          <mxGeometry x="670" y="440" width="60" height="20" as="geometry" />
        </mxCell>
        <mxCell id="IA97lqPhP8d_G3Qx_xhv-154" value="USBPRE" style="text;html=1;align=center;verticalAlign=middle;resizable=0;points=[];autosize=1;strokeColor=none;fillColor=none;" vertex="1" parent="1">
          <mxGeometry x="925" y="330" width="70" height="20" as="geometry" />
        </mxCell>
        <mxCell id="IA97lqPhP8d_G3Qx_xhv-155" value="PLLXTPRE" style="text;html=1;align=center;verticalAlign=middle;resizable=0;points=[];autosize=1;strokeColor=none;fillColor=none;" vertex="1" parent="1">
          <mxGeometry x="390" y="395" width="80" height="20" as="geometry" />
        </mxCell>
        <mxCell id="IA97lqPhP8d_G3Qx_xhv-156" value="PLLMUL" style="text;html=1;align=center;verticalAlign=middle;resizable=0;points=[];autosize=1;strokeColor=none;fillColor=none;" vertex="1" parent="1">
          <mxGeometry x="480" y="460" width="60" height="20" as="geometry" />
        </mxCell>
        <mxCell id="IA97lqPhP8d_G3Qx_xhv-157" value="" style="shape=trapezoid;perimeter=trapezoidPerimeter;whiteSpace=wrap;html=1;fixedSize=1;size=10;rotation=90;" vertex="1" parent="1">
          <mxGeometry x="565" y="445" width="180" height="30" as="geometry" />
        </mxCell>
        <mxCell id="IA97lqPhP8d_G3Qx_xhv-159" value="PLLSRC" style="text;html=1;align=center;verticalAlign=middle;resizable=0;points=[];autosize=1;strokeColor=none;fillColor=none;" vertex="1" parent="1">
          <mxGeometry x="345" y="470" width="60" height="20" as="geometry" />
        </mxCell>
        <mxCell id="IA97lqPhP8d_G3Qx_xhv-160" value="" style="endArrow=none;html=1;rounded=0;entryX=0.5;entryY=0;entryDx=0;entryDy=0;entryPerimeter=0;exitX=1;exitY=0.5;exitDx=0;exitDy=0;" edge="1" parent="1" source="IA97lqPhP8d_G3Qx_xhv-123" target="IA97lqPhP8d_G3Qx_xhv-159">
          <mxGeometry width="50" height="50" relative="1" as="geometry">
            <mxPoint x="390" y="430" as="sourcePoint" />
            <mxPoint x="440" y="380" as="targetPoint" />
          </mxGeometry>
        </mxCell>
        <mxCell id="IA97lqPhP8d_G3Qx_xhv-161" value="SW" style="text;html=1;align=center;verticalAlign=middle;resizable=0;points=[];autosize=1;strokeColor=none;fillColor=none;" vertex="1" parent="1">
          <mxGeometry x="640" y="560" width="30" height="20" as="geometry" />
        </mxCell>
        <mxCell id="IA97lqPhP8d_G3Qx_xhv-165" value="" style="endArrow=none;html=1;rounded=0;entryX=1;entryY=0.5;entryDx=0;entryDy=0;exitX=0.5;exitY=0;exitDx=0;exitDy=0;exitPerimeter=0;" edge="1" parent="1" source="IA97lqPhP8d_G3Qx_xhv-161" target="IA97lqPhP8d_G3Qx_xhv-157">
          <mxGeometry width="50" height="50" relative="1" as="geometry">
            <mxPoint x="620" y="590" as="sourcePoint" />
            <mxPoint x="670" y="540" as="targetPoint" />
          </mxGeometry>
        </mxCell>
        <mxCell id="IA97lqPhP8d_G3Qx_xhv-166" value="RTCSEL" style="text;html=1;align=center;verticalAlign=middle;resizable=0;points=[];autosize=1;strokeColor=none;fillColor=none;" vertex="1" parent="1">
          <mxGeometry x="385" y="285" width="60" height="20" as="geometry" />
        </mxCell>
        <mxCell id="IA97lqPhP8d_G3Qx_xhv-167" value="" style="endArrow=none;html=1;rounded=0;entryX=1;entryY=0.5;entryDx=0;entryDy=0;exitX=0.5;exitY=0;exitDx=0;exitDy=0;exitPerimeter=0;" edge="1" parent="1" source="IA97lqPhP8d_G3Qx_xhv-166" target="IA97lqPhP8d_G3Qx_xhv-30">
          <mxGeometry width="50" height="50" relative="1" as="geometry">
            <mxPoint x="380" y="315" as="sourcePoint" />
            <mxPoint x="415" y="270" as="targetPoint" />
          </mxGeometry>
        </mxCell>
        <mxCell id="IA97lqPhP8d_G3Qx_xhv-169" value="" style="endArrow=blockThin;html=1;rounded=0;endFill=1;entryX=0;entryY=0.5;entryDx=0;entryDy=0;" edge="1" parent="1" target="IA97lqPhP8d_G3Qx_xhv-176">
          <mxGeometry width="50" height="50" relative="1" as="geometry">
            <mxPoint x="670" y="460" as="sourcePoint" />
            <mxPoint x="760" y="460" as="targetPoint" />
          </mxGeometry>
        </mxCell>
        <mxCell id="IA97lqPhP8d_G3Qx_xhv-170" value="/ 8" style="rounded=0;whiteSpace=wrap;html=1;fillColor=#FFFFFF;" vertex="1" parent="1">
          <mxGeometry x="940" y="490" width="40" height="20" as="geometry" />
        </mxCell>
        <mxCell id="IA97lqPhP8d_G3Qx_xhv-171" value="&lt;div&gt;R=[1..512]&lt;br&gt;&lt;/div&gt;" style="text;html=1;align=center;verticalAlign=middle;resizable=0;points=[];autosize=1;strokeColor=none;fillColor=none;" vertex="1" parent="1">
          <mxGeometry x="720" y="470" width="70" height="20" as="geometry" />
        </mxCell>
        <mxCell id="IA97lqPhP8d_G3Qx_xhv-172" value="HPRE" style="text;html=1;align=center;verticalAlign=middle;resizable=0;points=[];autosize=1;strokeColor=none;fillColor=none;" vertex="1" parent="1">
          <mxGeometry x="730" y="430" width="50" height="20" as="geometry" />
        </mxCell>
        <mxCell id="IA97lqPhP8d_G3Qx_xhv-173" value="" style="endArrow=blockThin;html=1;rounded=0;endFill=1;exitX=1;exitY=0.5;exitDx=0;exitDy=0;" edge="1" parent="1" source="IA97lqPhP8d_G3Qx_xhv-176">
          <mxGeometry width="50" height="50" relative="1" as="geometry">
            <mxPoint x="800" y="460" as="sourcePoint" />
            <mxPoint x="1060" y="460" as="targetPoint" />
          </mxGeometry>
        </mxCell>
        <mxCell id="IA97lqPhP8d_G3Qx_xhv-175" value="&lt;div&gt;to CPU, DMA, AHB,&lt;br&gt;&lt;/div&gt;&lt;div&gt;FLASH, SRAM&lt;br&gt;&lt;/div&gt;" style="text;html=1;align=right;verticalAlign=middle;resizable=0;points=[];autosize=1;strokeColor=none;fillColor=none;spacingRight=6;" vertex="1" parent="1">
          <mxGeometry x="940" y="430" width="120" height="30" as="geometry" />
        </mxCell>
        <mxCell id="IA97lqPhP8d_G3Qx_xhv-176" value="/ R" style="rounded=0;whiteSpace=wrap;html=1;fillColor=#FFFFFF;" vertex="1" parent="1">
          <mxGeometry x="735" y="450" width="40" height="20" as="geometry" />
        </mxCell>
        <mxCell id="IA97lqPhP8d_G3Qx_xhv-177" value="" style="endArrow=blockThin;html=1;rounded=0;endFill=1;" edge="1" parent="1">
          <mxGeometry width="50" height="50" relative="1" as="geometry">
            <mxPoint x="980" y="500" as="sourcePoint" />
            <mxPoint x="1060" y="500" as="targetPoint" />
          </mxGeometry>
        </mxCell>
        <mxCell id="IA97lqPhP8d_G3Qx_xhv-178" value="to SysTick" style="text;html=1;align=right;verticalAlign=middle;resizable=0;points=[];autosize=1;strokeColor=none;fillColor=none;spacingRight=6;" vertex="1" parent="1">
          <mxGeometry x="980" y="480" width="80" height="20" as="geometry" />
        </mxCell>
        <mxCell id="IA97lqPhP8d_G3Qx_xhv-180" value="" style="endArrow=blockThin;html=1;rounded=0;endFill=1;" edge="1" parent="1">
          <mxGeometry width="50" height="50" relative="1" as="geometry">
            <mxPoint x="840" y="500" as="sourcePoint" />
            <mxPoint x="940" y="500" as="targetPoint" />
          </mxGeometry>
        </mxCell>
        <mxCell id="IA97lqPhP8d_G3Qx_xhv-181" value="" style="endArrow=none;html=1;rounded=0;startArrow=none;" edge="1" parent="1" source="IA97lqPhP8d_G3Qx_xhv-285">
          <mxGeometry width="50" height="50" relative="1" as="geometry">
            <mxPoint x="840" y="790" as="sourcePoint" />
            <mxPoint x="840" y="460" as="targetPoint" />
          </mxGeometry>
        </mxCell>
        <mxCell id="IA97lqPhP8d_G3Qx_xhv-182" value="HCLK" style="text;html=1;align=center;verticalAlign=middle;resizable=0;points=[];autosize=1;strokeColor=none;fillColor=none;fontStyle=1" vertex="1" parent="1">
          <mxGeometry x="775" y="440" width="50" height="20" as="geometry" />
        </mxCell>
        <mxCell id="IA97lqPhP8d_G3Qx_xhv-183" value="" style="endArrow=blockThin;html=1;rounded=0;endFill=1;" edge="1" parent="1">
          <mxGeometry width="50" height="50" relative="1" as="geometry">
            <mxPoint x="840" y="540" as="sourcePoint" />
            <mxPoint x="860" y="540" as="targetPoint" />
          </mxGeometry>
        </mxCell>
        <mxCell id="IA97lqPhP8d_G3Qx_xhv-184" value="/ P&lt;sub&gt;1&lt;/sub&gt;" style="rounded=0;whiteSpace=wrap;html=1;fillColor=#FFFFFF;" vertex="1" parent="1">
          <mxGeometry x="860" y="530" width="40" height="20" as="geometry" />
        </mxCell>
        <mxCell id="IA97lqPhP8d_G3Qx_xhv-185" value="PPRE1" style="text;html=1;align=center;verticalAlign=middle;resizable=0;points=[];autosize=1;strokeColor=none;fillColor=none;" vertex="1" parent="1">
          <mxGeometry x="850" y="510" width="60" height="20" as="geometry" />
        </mxCell>
        <mxCell id="IA97lqPhP8d_G3Qx_xhv-187" value="" style="endArrow=blockThin;html=1;rounded=0;endFill=1;" edge="1" parent="1">
          <mxGeometry width="50" height="50" relative="1" as="geometry">
            <mxPoint x="900" y="539.8" as="sourcePoint" />
            <mxPoint x="1060" y="540" as="targetPoint" />
          </mxGeometry>
        </mxCell>
        <mxCell id="IA97lqPhP8d_G3Qx_xhv-188" value="to APB1" style="text;html=1;align=right;verticalAlign=middle;resizable=0;points=[];autosize=1;strokeColor=none;fillColor=none;spacingRight=6;" vertex="1" parent="1">
          <mxGeometry x="1000" y="520" width="60" height="20" as="geometry" />
        </mxCell>
        <mxCell id="IA97lqPhP8d_G3Qx_xhv-189" value="PCLK1" style="text;html=1;align=center;verticalAlign=middle;resizable=0;points=[];autosize=1;strokeColor=none;fillColor=none;spacingRight=0;fontStyle=1" vertex="1" parent="1">
          <mxGeometry x="900" y="520" width="50" height="20" as="geometry" />
        </mxCell>
        <mxCell id="IA97lqPhP8d_G3Qx_xhv-194" value="/ P&lt;sub&gt;A&lt;/sub&gt;" style="rounded=0;whiteSpace=wrap;html=1;fillColor=#FFFFFF;" vertex="1" parent="1">
          <mxGeometry x="940" y="610" width="40" height="20" as="geometry" />
        </mxCell>
        <mxCell id="IA97lqPhP8d_G3Qx_xhv-195" value="PPRE2" style="text;html=1;align=center;verticalAlign=middle;resizable=0;points=[];autosize=1;strokeColor=none;fillColor=none;" vertex="1" parent="1">
          <mxGeometry x="850" y="550" width="60" height="20" as="geometry" />
        </mxCell>
        <mxCell id="IA97lqPhP8d_G3Qx_xhv-196" value="P&lt;sub&gt;1,2&lt;/sub&gt;=[1..16]" style="text;html=1;align=center;verticalAlign=middle;resizable=0;points=[];autosize=1;strokeColor=none;fillColor=none;" vertex="1" parent="1">
          <mxGeometry x="840" y="590" width="80" height="20" as="geometry" />
        </mxCell>
        <mxCell id="IA97lqPhP8d_G3Qx_xhv-197" value="PCLK2" style="text;html=1;align=center;verticalAlign=middle;resizable=0;points=[];autosize=1;strokeColor=none;fillColor=none;spacingRight=0;fontStyle=1" vertex="1" parent="1">
          <mxGeometry x="900" y="560" width="50" height="20" as="geometry" />
        </mxCell>
        <mxCell id="IA97lqPhP8d_G3Qx_xhv-198" value="" style="endArrow=blockThin;html=1;rounded=0;endFill=1;startArrow=none;" edge="1" parent="1" source="IA97lqPhP8d_G3Qx_xhv-201">
          <mxGeometry width="50" height="50" relative="1" as="geometry">
            <mxPoint x="820" y="579.6" as="sourcePoint" />
            <mxPoint x="860" y="579.6" as="targetPoint" />
          </mxGeometry>
        </mxCell>
        <mxCell id="IA97lqPhP8d_G3Qx_xhv-199" value="" style="endArrow=blockThin;html=1;rounded=0;endFill=1;startArrow=none;" edge="1" parent="1" source="IA97lqPhP8d_G3Qx_xhv-295">
          <mxGeometry width="50" height="50" relative="1" as="geometry">
            <mxPoint x="900" y="580" as="sourcePoint" />
            <mxPoint x="1060" y="580" as="targetPoint" />
          </mxGeometry>
        </mxCell>
        <mxCell id="IA97lqPhP8d_G3Qx_xhv-200" value="to APB2" style="text;html=1;align=right;verticalAlign=middle;resizable=0;points=[];autosize=1;strokeColor=none;fillColor=none;spacingRight=6;" vertex="1" parent="1">
          <mxGeometry x="1000" y="560" width="60" height="20" as="geometry" />
        </mxCell>
        <mxCell id="IA97lqPhP8d_G3Qx_xhv-202" value="" style="endArrow=blockThin;html=1;rounded=0;endFill=1;" edge="1" parent="1">
          <mxGeometry width="50" height="50" relative="1" as="geometry">
            <mxPoint x="920" y="580" as="sourcePoint" />
            <mxPoint x="940" y="619.8000000000001" as="targetPoint" />
            <Array as="points">
              <mxPoint x="920" y="620" />
            </Array>
          </mxGeometry>
        </mxCell>
        <mxCell id="IA97lqPhP8d_G3Qx_xhv-203" value="ADCPRE" style="text;html=1;align=center;verticalAlign=middle;resizable=0;points=[];autosize=1;strokeColor=none;fillColor=none;" vertex="1" parent="1">
          <mxGeometry x="925" y="590" width="70" height="20" as="geometry" />
        </mxCell>
        <mxCell id="IA97lqPhP8d_G3Qx_xhv-204" value="P&lt;sub&gt;A&lt;/sub&gt;=[2..8]" style="text;html=1;align=center;verticalAlign=middle;resizable=0;points=[];autosize=1;strokeColor=none;fillColor=none;" vertex="1" parent="1">
          <mxGeometry x="930" y="630" width="60" height="20" as="geometry" />
        </mxCell>
        <mxCell id="IA97lqPhP8d_G3Qx_xhv-205" value="" style="endArrow=blockThin;html=1;rounded=0;endFill=1;" edge="1" parent="1">
          <mxGeometry width="50" height="50" relative="1" as="geometry">
            <mxPoint x="980" y="619.8000000000001" as="sourcePoint" />
            <mxPoint x="1060" y="620" as="targetPoint" />
          </mxGeometry>
        </mxCell>
        <mxCell id="IA97lqPhP8d_G3Qx_xhv-206" value="&lt;div&gt;to ADC&lt;/div&gt;&lt;div&gt;(Sample)&lt;br&gt;&lt;/div&gt;" style="text;html=1;align=right;verticalAlign=middle;resizable=0;points=[];autosize=1;strokeColor=none;fillColor=none;spacingRight=6;" vertex="1" parent="1">
          <mxGeometry x="990" y="590" width="70" height="30" as="geometry" />
        </mxCell>
        <mxCell id="IA97lqPhP8d_G3Qx_xhv-201" value="/ P&lt;sub&gt;2&lt;/sub&gt;" style="rounded=0;whiteSpace=wrap;html=1;fillColor=#FFFFFF;" vertex="1" parent="1">
          <mxGeometry x="860" y="570" width="40" height="20" as="geometry" />
        </mxCell>
        <mxCell id="IA97lqPhP8d_G3Qx_xhv-208" value="" style="endArrow=blockThin;html=1;rounded=0;endFill=1;" edge="1" parent="1">
          <mxGeometry width="50" height="50" relative="1" as="geometry">
            <mxPoint x="840" y="580" as="sourcePoint" />
            <mxPoint x="860" y="580" as="targetPoint" />
          </mxGeometry>
        </mxCell>
        <mxCell id="IA97lqPhP8d_G3Qx_xhv-210" value="/ P&lt;sub&gt;T&lt;/sub&gt;" style="rounded=0;whiteSpace=wrap;html=1;fillColor=#FFFFFF;" vertex="1" parent="1">
          <mxGeometry x="860" y="650" width="40" height="20" as="geometry" />
        </mxCell>
        <mxCell id="IA97lqPhP8d_G3Qx_xhv-211" value="" style="endArrow=blockThin;html=1;rounded=0;endFill=1;" edge="1" parent="1">
          <mxGeometry width="50" height="50" relative="1" as="geometry">
            <mxPoint x="900" y="659.8" as="sourcePoint" />
            <mxPoint x="1060" y="660" as="targetPoint" />
          </mxGeometry>
        </mxCell>
        <mxCell id="IA97lqPhP8d_G3Qx_xhv-212" value="&lt;div&gt;to Tkey&lt;/div&gt;&lt;div&gt;(Counter)&lt;br&gt;&lt;/div&gt;" style="text;html=1;align=right;verticalAlign=middle;resizable=0;points=[];autosize=1;strokeColor=none;fillColor=none;spacingRight=6;" vertex="1" parent="1">
          <mxGeometry x="990" y="630" width="70" height="30" as="geometry" />
        </mxCell>
        <mxCell id="IA97lqPhP8d_G3Qx_xhv-213" value="" style="endArrow=blockThin;html=1;rounded=0;endFill=1;" edge="1" parent="1">
          <mxGeometry width="50" height="50" relative="1" as="geometry">
            <mxPoint x="840" y="660" as="sourcePoint" />
            <mxPoint x="860" y="660" as="targetPoint" />
          </mxGeometry>
        </mxCell>
        <mxCell id="IA97lqPhP8d_G3Qx_xhv-215" value="CCSEL" style="text;html=1;align=center;verticalAlign=middle;resizable=0;points=[];autosize=1;strokeColor=none;fillColor=none;" vertex="1" parent="1">
          <mxGeometry x="850" y="630" width="60" height="20" as="geometry" />
        </mxCell>
        <mxCell id="IA97lqPhP8d_G3Qx_xhv-216" value="P&lt;sub&gt;T&lt;/sub&gt;=[8..56]" style="text;html=1;align=center;verticalAlign=middle;resizable=0;points=[];autosize=1;strokeColor=none;fillColor=none;" vertex="1" parent="1">
          <mxGeometry x="845" y="670" width="70" height="20" as="geometry" />
        </mxCell>
        <mxCell id="IA97lqPhP8d_G3Qx_xhv-218" value="" style="endArrow=blockThin;html=1;rounded=0;endFill=1;" edge="1" parent="1">
          <mxGeometry width="50" height="50" relative="1" as="geometry">
            <mxPoint x="860" y="720" as="sourcePoint" />
            <mxPoint x="880" y="710" as="targetPoint" />
            <Array as="points">
              <mxPoint x="860" y="710" />
            </Array>
          </mxGeometry>
        </mxCell>
        <mxCell id="IA97lqPhP8d_G3Qx_xhv-219" value="" style="shape=trapezoid;perimeter=trapezoidPerimeter;whiteSpace=wrap;html=1;fixedSize=1;size=10;rotation=90;" vertex="1" parent="1">
          <mxGeometry x="925" y="710" width="50" height="20" as="geometry" />
        </mxCell>
        <mxCell id="IA97lqPhP8d_G3Qx_xhv-220" value="× 2" style="rounded=0;whiteSpace=wrap;html=1;fillColor=#FFFFFF;" vertex="1" parent="1">
          <mxGeometry x="880" y="700" width="40" height="20" as="geometry" />
        </mxCell>
        <mxCell id="IA97lqPhP8d_G3Qx_xhv-221" value="" style="endArrow=blockThin;html=1;rounded=0;endFill=1;" edge="1" parent="1">
          <mxGeometry width="50" height="50" relative="1" as="geometry">
            <mxPoint x="920" y="710" as="sourcePoint" />
            <mxPoint x="940" y="710" as="targetPoint" />
          </mxGeometry>
        </mxCell>
        <mxCell id="IA97lqPhP8d_G3Qx_xhv-222" value="" style="endArrow=blockThin;html=1;rounded=0;endFill=1;startArrow=none;" edge="1" parent="1" source="IA97lqPhP8d_G3Qx_xhv-301">
          <mxGeometry width="50" height="50" relative="1" as="geometry">
            <mxPoint x="840" y="720" as="sourcePoint" />
            <mxPoint x="940" y="730" as="targetPoint" />
            <Array as="points">
              <mxPoint x="860" y="720" />
              <mxPoint x="860" y="730" />
            </Array>
          </mxGeometry>
        </mxCell>
        <mxCell id="IA97lqPhP8d_G3Qx_xhv-223" value="" style="endArrow=blockThin;html=1;rounded=0;endFill=1;exitX=0.5;exitY=0;exitDx=0;exitDy=0;" edge="1" parent="1" source="IA97lqPhP8d_G3Qx_xhv-219">
          <mxGeometry width="50" height="50" relative="1" as="geometry">
            <mxPoint x="970" y="720" as="sourcePoint" />
            <mxPoint x="1060" y="720" as="targetPoint" />
          </mxGeometry>
        </mxCell>
        <mxCell id="IA97lqPhP8d_G3Qx_xhv-230" value="to TIM2,3,4&lt;br&gt;(Counter)" style="text;html=1;align=right;verticalAlign=middle;resizable=0;points=[];autosize=1;strokeColor=none;fillColor=none;spacingRight=6;" vertex="1" parent="1">
          <mxGeometry x="980" y="690" width="80" height="30" as="geometry" />
        </mxCell>
        <mxCell id="IA97lqPhP8d_G3Qx_xhv-233" value="&lt;font style=&quot;font-size: 10px&quot;&gt;k = 2&lt;/font&gt;" style="rounded=0;whiteSpace=wrap;html=1;fontSize=12;fillColor=#FFFFFF;align=left;verticalAlign=bottom;fontStyle=0;dashed=1;spacingLeft=2;" vertex="1" parent="1">
          <mxGeometry x="850" y="760" width="120" height="60" as="geometry" />
        </mxCell>
        <mxCell id="IA97lqPhP8d_G3Qx_xhv-234" value="" style="endArrow=blockThin;html=1;rounded=0;endFill=1;" edge="1" parent="1">
          <mxGeometry width="50" height="50" relative="1" as="geometry">
            <mxPoint x="860" y="790" as="sourcePoint" />
            <mxPoint x="880" y="780" as="targetPoint" />
            <Array as="points">
              <mxPoint x="860" y="780" />
            </Array>
          </mxGeometry>
        </mxCell>
        <mxCell id="IA97lqPhP8d_G3Qx_xhv-235" value="" style="shape=trapezoid;perimeter=trapezoidPerimeter;whiteSpace=wrap;html=1;fixedSize=1;size=10;rotation=90;" vertex="1" parent="1">
          <mxGeometry x="925" y="780" width="50" height="20" as="geometry" />
        </mxCell>
        <mxCell id="IA97lqPhP8d_G3Qx_xhv-236" value="× 2" style="rounded=0;whiteSpace=wrap;html=1;fillColor=#FFFFFF;" vertex="1" parent="1">
          <mxGeometry x="880" y="770" width="40" height="20" as="geometry" />
        </mxCell>
        <mxCell id="IA97lqPhP8d_G3Qx_xhv-237" value="" style="endArrow=blockThin;html=1;rounded=0;endFill=1;" edge="1" parent="1">
          <mxGeometry width="50" height="50" relative="1" as="geometry">
            <mxPoint x="920" y="780" as="sourcePoint" />
            <mxPoint x="940" y="780" as="targetPoint" />
          </mxGeometry>
        </mxCell>
        <mxCell id="IA97lqPhP8d_G3Qx_xhv-238" value="" style="endArrow=blockThin;html=1;rounded=0;endFill=1;startArrow=none;" edge="1" parent="1" source="IA97lqPhP8d_G3Qx_xhv-303">
          <mxGeometry width="50" height="50" relative="1" as="geometry">
            <mxPoint x="840" y="790" as="sourcePoint" />
            <mxPoint x="940" y="800" as="targetPoint" />
            <Array as="points">
              <mxPoint x="860" y="790" />
              <mxPoint x="860" y="800" />
            </Array>
          </mxGeometry>
        </mxCell>
        <mxCell id="IA97lqPhP8d_G3Qx_xhv-239" value="" style="endArrow=blockThin;html=1;rounded=0;endFill=1;exitX=0.5;exitY=0;exitDx=0;exitDy=0;" edge="1" parent="1">
          <mxGeometry width="50" height="50" relative="1" as="geometry">
            <mxPoint x="960" y="790" as="sourcePoint" />
            <mxPoint x="1060" y="790" as="targetPoint" />
          </mxGeometry>
        </mxCell>
        <mxCell id="IA97lqPhP8d_G3Qx_xhv-240" value="to TIM1&lt;br&gt;(Counter)" style="text;html=1;align=right;verticalAlign=middle;resizable=0;points=[];autosize=1;strokeColor=none;fillColor=none;spacingRight=6;" vertex="1" parent="1">
          <mxGeometry x="990" y="760" width="70" height="30" as="geometry" />
        </mxCell>
        <mxCell id="IA97lqPhP8d_G3Qx_xhv-242" value="*" style="text;html=1;align=center;verticalAlign=middle;resizable=0;points=[];autosize=1;strokeColor=none;fillColor=none;fontSize=12;" vertex="1" parent="1">
          <mxGeometry x="950" y="690" width="20" height="20" as="geometry" />
        </mxCell>
        <mxCell id="IA97lqPhP8d_G3Qx_xhv-243" value="*" style="text;html=1;align=center;verticalAlign=middle;resizable=0;points=[];autosize=1;strokeColor=none;fillColor=none;fontSize=12;" vertex="1" parent="1">
          <mxGeometry x="950" y="760" width="20" height="20" as="geometry" />
        </mxCell>
        <mxCell id="IA97lqPhP8d_G3Qx_xhv-244" value="&lt;div&gt;* = Hardware automatically&lt;/div&gt;&lt;div&gt;selects × 2 path when P&lt;sub&gt;k&lt;/sub&gt; &amp;gt; 1&lt;br&gt;&lt;/div&gt;" style="text;html=1;align=left;verticalAlign=middle;resizable=0;points=[];autosize=1;strokeColor=none;fillColor=none;fontSize=12;" vertex="1" parent="1">
          <mxGeometry x="670" y="780.26" width="170" height="40" as="geometry" />
        </mxCell>
        <mxCell id="IA97lqPhP8d_G3Qx_xhv-246" value="" style="endArrow=blockThin;html=1;rounded=0;endFill=1;" edge="1" parent="1">
          <mxGeometry width="50" height="50" relative="1" as="geometry">
            <mxPoint x="200" y="715" as="sourcePoint" />
            <mxPoint x="165" y="714.77" as="targetPoint" />
          </mxGeometry>
        </mxCell>
        <mxCell id="IA97lqPhP8d_G3Qx_xhv-247" value="" style="whiteSpace=wrap;html=1;aspect=fixed;" vertex="1" parent="1">
          <mxGeometry x="155" y="710" width="10" height="10" as="geometry" />
        </mxCell>
        <mxCell id="IA97lqPhP8d_G3Qx_xhv-248" value="MCO" style="text;html=1;align=right;verticalAlign=middle;resizable=0;points=[];autosize=1;strokeColor=none;fillColor=none;" vertex="1" parent="1">
          <mxGeometry x="110" y="705" width="40" height="20" as="geometry" />
        </mxCell>
        <mxCell id="IA97lqPhP8d_G3Qx_xhv-249" value="" style="shape=trapezoid;perimeter=trapezoidPerimeter;whiteSpace=wrap;html=1;fixedSize=1;size=10;rotation=-90;" vertex="1" parent="1">
          <mxGeometry x="155" y="700" width="120" height="30" as="geometry" />
        </mxCell>
        <mxCell id="IA97lqPhP8d_G3Qx_xhv-252" value="" style="endArrow=blockThin;html=1;rounded=0;endFill=1;" edge="1" parent="1">
          <mxGeometry width="50" height="50" relative="1" as="geometry">
            <mxPoint x="350" y="669.86" as="sourcePoint" />
            <mxPoint x="230" y="669.86" as="targetPoint" />
          </mxGeometry>
        </mxCell>
        <mxCell id="IA97lqPhP8d_G3Qx_xhv-255" value="&lt;div&gt;SYSCLK&lt;/div&gt;" style="text;html=1;align=left;verticalAlign=middle;resizable=0;points=[];autosize=1;strokeColor=none;fillColor=none;fontSize=12;spacingLeft=6;" vertex="1" parent="1">
          <mxGeometry x="230" y="650" width="70" height="20" as="geometry" />
        </mxCell>
        <mxCell id="IA97lqPhP8d_G3Qx_xhv-262" value="" style="endArrow=blockThin;html=1;rounded=0;endFill=1;" edge="1" parent="1">
          <mxGeometry width="50" height="50" relative="1" as="geometry">
            <mxPoint x="250" y="699.8599999999999" as="sourcePoint" />
            <mxPoint x="230" y="699.8600000000001" as="targetPoint" />
          </mxGeometry>
        </mxCell>
        <mxCell id="IA97lqPhP8d_G3Qx_xhv-263" value="PLLCLK" style="text;html=1;align=left;verticalAlign=middle;resizable=0;points=[];autosize=1;strokeColor=none;fillColor=none;fontSize=12;spacingLeft=6;" vertex="1" parent="1">
          <mxGeometry x="290" y="680" width="70" height="20" as="geometry" />
        </mxCell>
        <mxCell id="IA97lqPhP8d_G3Qx_xhv-268" value="/ 2" style="rounded=0;whiteSpace=wrap;html=1;fillColor=#FFFFFF;" vertex="1" parent="1">
          <mxGeometry x="250" y="690" width="40" height="20" as="geometry" />
        </mxCell>
        <mxCell id="IA97lqPhP8d_G3Qx_xhv-269" value="" style="endArrow=blockThin;html=1;rounded=0;endFill=1;" edge="1" parent="1">
          <mxGeometry width="50" height="50" relative="1" as="geometry">
            <mxPoint x="350" y="700.26" as="sourcePoint" />
            <mxPoint x="290" y="699.8599999999999" as="targetPoint" />
          </mxGeometry>
        </mxCell>
        <mxCell id="IA97lqPhP8d_G3Qx_xhv-270" value="" style="endArrow=blockThin;html=1;rounded=0;endFill=1;" edge="1" parent="1">
          <mxGeometry width="50" height="50" relative="1" as="geometry">
            <mxPoint x="350" y="729.8600000000001" as="sourcePoint" />
            <mxPoint x="230" y="729.8600000000001" as="targetPoint" />
          </mxGeometry>
        </mxCell>
        <mxCell id="IA97lqPhP8d_G3Qx_xhv-271" value="HSI" style="text;html=1;align=left;verticalAlign=middle;resizable=0;points=[];autosize=1;strokeColor=none;fillColor=none;fontSize=12;spacingLeft=6;" vertex="1" parent="1">
          <mxGeometry x="230" y="710" width="40" height="20" as="geometry" />
        </mxCell>
        <mxCell id="IA97lqPhP8d_G3Qx_xhv-274" value="" style="endArrow=blockThin;html=1;rounded=0;endFill=1;" edge="1" parent="1">
          <mxGeometry width="50" height="50" relative="1" as="geometry">
            <mxPoint x="350" y="759.8600000000001" as="sourcePoint" />
            <mxPoint x="230" y="759.8600000000001" as="targetPoint" />
          </mxGeometry>
        </mxCell>
        <mxCell id="IA97lqPhP8d_G3Qx_xhv-275" value="HSE" style="text;html=1;align=left;verticalAlign=middle;resizable=0;points=[];autosize=1;strokeColor=none;fillColor=none;fontSize=12;spacingLeft=6;" vertex="1" parent="1">
          <mxGeometry x="230" y="740" width="50" height="20" as="geometry" />
        </mxCell>
        <mxCell id="IA97lqPhP8d_G3Qx_xhv-277" value="MCO" style="text;html=1;align=center;verticalAlign=middle;resizable=0;points=[];autosize=1;strokeColor=none;fillColor=none;fontSize=12;" vertex="1" parent="1">
          <mxGeometry x="195" y="780.26" width="40" height="20" as="geometry" />
        </mxCell>
        <mxCell id="IA97lqPhP8d_G3Qx_xhv-280" value="" style="endArrow=none;html=1;rounded=0;fontSize=12;entryX=0;entryY=0.5;entryDx=0;entryDy=0;" edge="1" parent="1" source="IA97lqPhP8d_G3Qx_xhv-277" target="IA97lqPhP8d_G3Qx_xhv-249">
          <mxGeometry width="50" height="50" relative="1" as="geometry">
            <mxPoint x="220" y="840.26" as="sourcePoint" />
            <mxPoint x="270" y="790.26" as="targetPoint" />
          </mxGeometry>
        </mxCell>
        <mxCell id="IA97lqPhP8d_G3Qx_xhv-281" value="" style="ellipse;whiteSpace=wrap;html=1;aspect=fixed;fillColor=#000000;" vertex="1" parent="1">
          <mxGeometry x="317.5" y="377.5" width="5" height="5" as="geometry" />
        </mxCell>
        <mxCell id="IA97lqPhP8d_G3Qx_xhv-282" value="" style="endArrow=none;html=1;rounded=0;endFill=1;" edge="1" parent="1" target="IA97lqPhP8d_G3Qx_xhv-281">
          <mxGeometry width="50" height="50" relative="1" as="geometry">
            <mxPoint x="279.9999999999999" y="379.80999999999995" as="sourcePoint" />
            <mxPoint x="640" y="380" as="targetPoint" />
            <Array as="points" />
          </mxGeometry>
        </mxCell>
        <mxCell id="IA97lqPhP8d_G3Qx_xhv-283" value="" style="ellipse;whiteSpace=wrap;html=1;aspect=fixed;fillColor=#000000;" vertex="1" parent="1">
          <mxGeometry x="317.5" y="437.5" width="5" height="5" as="geometry" />
        </mxCell>
        <mxCell id="IA97lqPhP8d_G3Qx_xhv-284" value="" style="endArrow=none;html=1;rounded=0;endFill=1;" edge="1" parent="1" target="IA97lqPhP8d_G3Qx_xhv-283">
          <mxGeometry width="50" height="50" relative="1" as="geometry">
            <mxPoint x="320" y="440" as="sourcePoint" />
            <mxPoint x="640" y="540" as="targetPoint" />
            <Array as="points" />
          </mxGeometry>
        </mxCell>
        <mxCell id="IA97lqPhP8d_G3Qx_xhv-285" value="" style="ellipse;whiteSpace=wrap;html=1;aspect=fixed;fillColor=#000000;" vertex="1" parent="1">
          <mxGeometry x="837.5" y="457.5" width="5" height="5" as="geometry" />
        </mxCell>
        <mxCell id="IA97lqPhP8d_G3Qx_xhv-286" value="" style="endArrow=none;html=1;rounded=0;startArrow=none;" edge="1" parent="1" source="IA97lqPhP8d_G3Qx_xhv-288" target="IA97lqPhP8d_G3Qx_xhv-285">
          <mxGeometry width="50" height="50" relative="1" as="geometry">
            <mxPoint x="840" y="790" as="sourcePoint" />
            <mxPoint x="840" y="460" as="targetPoint" />
          </mxGeometry>
        </mxCell>
        <mxCell id="IA97lqPhP8d_G3Qx_xhv-288" value="" style="ellipse;whiteSpace=wrap;html=1;aspect=fixed;fillColor=#000000;" vertex="1" parent="1">
          <mxGeometry x="837.5" y="497.5" width="5" height="5" as="geometry" />
        </mxCell>
        <mxCell id="IA97lqPhP8d_G3Qx_xhv-290" value="" style="endArrow=none;html=1;rounded=0;startArrow=none;" edge="1" parent="1" source="IA97lqPhP8d_G3Qx_xhv-291" target="IA97lqPhP8d_G3Qx_xhv-288">
          <mxGeometry width="50" height="50" relative="1" as="geometry">
            <mxPoint x="840" y="790" as="sourcePoint" />
            <mxPoint x="840" y="462.5" as="targetPoint" />
          </mxGeometry>
        </mxCell>
        <mxCell id="IA97lqPhP8d_G3Qx_xhv-291" value="" style="ellipse;whiteSpace=wrap;html=1;aspect=fixed;fillColor=#000000;" vertex="1" parent="1">
          <mxGeometry x="837.5" y="537.5" width="5" height="5" as="geometry" />
        </mxCell>
        <mxCell id="IA97lqPhP8d_G3Qx_xhv-292" value="" style="endArrow=none;html=1;rounded=0;startArrow=none;" edge="1" parent="1" source="IA97lqPhP8d_G3Qx_xhv-293" target="IA97lqPhP8d_G3Qx_xhv-291">
          <mxGeometry width="50" height="50" relative="1" as="geometry">
            <mxPoint x="840" y="790" as="sourcePoint" />
            <mxPoint x="840" y="502.5" as="targetPoint" />
          </mxGeometry>
        </mxCell>
        <mxCell id="IA97lqPhP8d_G3Qx_xhv-293" value="" style="ellipse;whiteSpace=wrap;html=1;aspect=fixed;fillColor=#000000;" vertex="1" parent="1">
          <mxGeometry x="837.5" y="577.5" width="5" height="5" as="geometry" />
        </mxCell>
        <mxCell id="IA97lqPhP8d_G3Qx_xhv-294" value="" style="endArrow=none;html=1;rounded=0;startArrow=none;" edge="1" parent="1" source="IA97lqPhP8d_G3Qx_xhv-297" target="IA97lqPhP8d_G3Qx_xhv-293">
          <mxGeometry width="50" height="50" relative="1" as="geometry">
            <mxPoint x="840" y="790" as="sourcePoint" />
            <mxPoint x="840" y="542.5" as="targetPoint" />
          </mxGeometry>
        </mxCell>
        <mxCell id="IA97lqPhP8d_G3Qx_xhv-295" value="" style="ellipse;whiteSpace=wrap;html=1;aspect=fixed;fillColor=#000000;" vertex="1" parent="1">
          <mxGeometry x="917.5" y="577.5" width="5" height="5" as="geometry" />
        </mxCell>
        <mxCell id="IA97lqPhP8d_G3Qx_xhv-296" value="" style="endArrow=none;html=1;rounded=0;endFill=1;" edge="1" parent="1" target="IA97lqPhP8d_G3Qx_xhv-295">
          <mxGeometry width="50" height="50" relative="1" as="geometry">
            <mxPoint x="900" y="580" as="sourcePoint" />
            <mxPoint x="1060" y="580" as="targetPoint" />
          </mxGeometry>
        </mxCell>
        <mxCell id="IA97lqPhP8d_G3Qx_xhv-297" value="" style="ellipse;whiteSpace=wrap;html=1;aspect=fixed;fillColor=#000000;" vertex="1" parent="1">
          <mxGeometry x="837.5" y="657.5" width="5" height="5" as="geometry" />
        </mxCell>
        <mxCell id="IA97lqPhP8d_G3Qx_xhv-298" value="" style="endArrow=none;html=1;rounded=0;startArrow=none;" edge="1" parent="1" source="IA97lqPhP8d_G3Qx_xhv-299" target="IA97lqPhP8d_G3Qx_xhv-297">
          <mxGeometry width="50" height="50" relative="1" as="geometry">
            <mxPoint x="840" y="790" as="sourcePoint" />
            <mxPoint x="840" y="582.5" as="targetPoint" />
          </mxGeometry>
        </mxCell>
        <mxCell id="IA97lqPhP8d_G3Qx_xhv-299" value="" style="ellipse;whiteSpace=wrap;html=1;aspect=fixed;fillColor=#000000;" vertex="1" parent="1">
          <mxGeometry x="837.5" y="717.5" width="5" height="5" as="geometry" />
        </mxCell>
        <mxCell id="IA97lqPhP8d_G3Qx_xhv-300" value="" style="endArrow=none;html=1;rounded=0;" edge="1" parent="1" target="IA97lqPhP8d_G3Qx_xhv-299">
          <mxGeometry width="50" height="50" relative="1" as="geometry">
            <mxPoint x="840" y="790" as="sourcePoint" />
            <mxPoint x="840" y="662.5" as="targetPoint" />
          </mxGeometry>
        </mxCell>
        <mxCell id="IA97lqPhP8d_G3Qx_xhv-301" value="" style="ellipse;whiteSpace=wrap;html=1;aspect=fixed;fillColor=#000000;" vertex="1" parent="1">
          <mxGeometry x="857.5" y="717.5" width="5" height="5" as="geometry" />
        </mxCell>
        <mxCell id="IA97lqPhP8d_G3Qx_xhv-302" value="" style="endArrow=none;html=1;rounded=0;endFill=1;" edge="1" parent="1" target="IA97lqPhP8d_G3Qx_xhv-301">
          <mxGeometry width="50" height="50" relative="1" as="geometry">
            <mxPoint x="840" y="720" as="sourcePoint" />
            <mxPoint x="940" y="730" as="targetPoint" />
            <Array as="points" />
          </mxGeometry>
        </mxCell>
        <mxCell id="IA97lqPhP8d_G3Qx_xhv-303" value="" style="ellipse;whiteSpace=wrap;html=1;aspect=fixed;fillColor=#000000;" vertex="1" parent="1">
          <mxGeometry x="857.5" y="787.5" width="5" height="5" as="geometry" />
        </mxCell>
        <mxCell id="IA97lqPhP8d_G3Qx_xhv-304" value="" style="endArrow=none;html=1;rounded=0;endFill=1;" edge="1" parent="1" target="IA97lqPhP8d_G3Qx_xhv-303">
          <mxGeometry width="50" height="50" relative="1" as="geometry">
            <mxPoint x="840" y="790" as="sourcePoint" />
            <mxPoint x="940" y="800" as="targetPoint" />
            <Array as="points" />
          </mxGeometry>
        </mxCell>
      </root>
    </mxGraphModel>
  </diagram>
</mxfile>
